<?xml version="1.0" encoding="utf-8"?>
<!-- Generator: Adobe Illustrator 27.5.0, SVG Export Plug-In . SVG Version: 6.00 Build 0)  -->
<svg version="1.1" id="Layer_1" xmlns="http://www.w3.org/2000/svg" xmlns:xlink="http://www.w3.org/1999/xlink" x="0px" y="0px"
	 viewBox="0 0 1920 1080" style="enable-background:new 0 0 1920 1080;" xml:space="preserve">
<style type="text/css">
	.st0{fill:none;}
	.st1{fill:#45479D;}
	.st2{font-family:'MyriadPro-Regular';}
	.st3{font-size:231.6453px;}
	.st4{fill:none;stroke:#45479D;stroke-width:18;stroke-miterlimit:10;}
	.st5{fill:none;stroke:#DF1F26;stroke-width:18;stroke-miterlimit:10;}
	.st6{fill:none;stroke:#DE2227;stroke-width:18;stroke-miterlimit:10;}
</style>
<rect x="507.58" y="522.25" class="st0" width="2.82" height="0"/>
<text transform="matrix(1 0 0 1 2.4825 934.3672)" class="st1 st2 st3">Invest</text>
<path class="st4" d="M233.53,693.79"/>
<path class="st4" d="M233.53,736.71"/>
<text transform="matrix(1 0 0 1 728.2444 723.4564)" class="st1 st2 st3">in </text>
<path class="st5" d="M1859.43,379"/>
<path class="st5" d="M1104.33,379"/>
<path class="st5" d="M1868.43,371"/>
<path class="st5" d="M1123,371"/>
<path class="st6" d="M1087.79,379"/>
<path class="st6" d="M1227,356"/>
<path class="st6" d="M1868,344"/>
<polyline class="st5" points="10,953 602,953 659,790 678,865 725.72,742.95 913,741 968,577 1002,630 1057,439 1096,496 1124,379 
	1911,379 "/>
<text transform="matrix(1 0 0 1 1132.2444 363.4564)" class="st1 st2 st3">yourself</text>
</svg>
